<?xml version="1.0" encoding="UTF-8"?>
<svg version="1.1" xmlns="http://www.w3.org/2000/svg" width="300" height="300">
<path d="M0 0 C99 0 198 0 300 0 C300 99 300 198 300 300 C201 300 102 300 0 300 C0 201 0 102 0 0 Z " fill="#F3F3F3" transform="translate(0,0)"/>
<path d="M0 0 C3.36513458 3.75608713 5.63978654 7.85373517 7.85546875 12.34765625 C8.20257401 13.04136826 8.54967926 13.73508026 8.90730286 14.44981384 C9.63534206 15.90822087 10.36045058 17.36809421 11.08276367 18.8293457 C12.18756127 21.06262386 13.30299409 23.29034611 14.41992188 25.51757812 C15.12823947 26.93978794 15.83594311 28.36230373 16.54296875 29.78515625 C16.87523972 30.44878677 17.20751068 31.1124173 17.54985046 31.79615784 C21.15275927 39.11371597 22.53092649 46.31716602 19.9375 54.25 C15.36263964 60.74335019 10.84128347 63.54569536 3 65 C0.18087096 65.23713021 -2.61005442 65.2356091 -5.4375 65.1953125 C-6.20304199 65.1924826 -6.96858398 65.18965271 -7.75732422 65.18673706 C-10.17171724 65.17565648 -12.58572154 65.15057601 -15 65.125 C-16.64973418 65.11495448 -18.29947424 65.1058314 -19.94921875 65.09765625 C-23.96629268 65.07575712 -27.98308073 65.04131325 -32 65 C-31.42625478 61.66207782 -30.61909779 58.84288588 -29.15234375 55.79296875 C-28.82999756 55.11516357 -28.50765137 54.4373584 -28.17553711 53.73901367 C-27.56270874 52.4760144 -27.56270874 52.4760144 -26.9375 51.1875 C-25.638125 48.485625 -24.33875 45.78375 -23 43 C-16.07 43 -9.14 43 -2 43 C-4.45026163 38.1385708 -4.45026163 38.1385708 -6.90527344 33.27954102 C-9.42856273 28.25297829 -11.75628764 23.15706565 -14 18 C-20.49160969 30.0679165 -26.60480759 42.26960131 -32.45703125 54.66015625 C-34.48692312 58.95033717 -36.58860791 63.19921303 -38.72094727 67.43920898 C-41.05020515 72.10261535 -43.30672246 76.80072419 -45.5625 81.5 C-46.03107422 82.46808594 -46.49964844 83.43617188 -46.98242188 84.43359375 C-49.55463166 89.7938631 -51.93514573 95.1603886 -54.02319336 100.72851562 C-55.17682655 103.41119577 -56.20787529 105.67731538 -58 108 C-60.54370117 108.56762695 -60.54370117 108.56762695 -63.54296875 108.48828125 C-64.61611328 108.47216797 -65.68925781 108.45605469 -66.79492188 108.43945312 C-67.91447266 108.39755859 -69.03402344 108.35566406 -70.1875 108.3125 C-71.31865234 108.28994141 -72.44980469 108.26738281 -73.61523438 108.24414062 C-76.41147976 108.18514811 -79.20508097 108.1028824 -82 108 C-81.45636974 105.55879241 -80.9460975 103.91179591 -79.625 101.75 C-78.2708231 99.45831601 -77.42786238 97.54509699 -76.5625 95.0625 C-75.59742284 92.36329983 -74.69641964 90.54952592 -73.0625 88.125 C-71.37293535 85.56505357 -70.38026397 83.62266062 -69.3125 80.8125 C-66.36920023 73.11105949 -62.65743199 65.75168142 -59.10302734 58.31933594 C-56.6855243 53.23605154 -54.34304565 48.11794677 -52 43 C-51.34 43 -50.68 43 -50 43 C-49.8450708 42.41226807 -49.6901416 41.82453613 -49.53051758 41.21899414 C-47.58369811 34.26120698 -44.83974921 27.92691891 -41.6875 21.4375 C-40.99624023 19.97280273 -40.99624023 19.97280273 -40.29101562 18.47851562 C-30.98588244 -0.86943167 -30.98588244 -0.86943167 -21.3125 -4.3125 C-13.41592535 -5.96631092 -6.51006877 -4.68724951 0 0 Z " fill="#9034EC" transform="translate(165,75)"/>
<path d="M0 0 C0.92218323 -0.00570007 1.84436646 -0.01140015 2.79449463 -0.01727295 C4.75832974 -0.02674808 6.72218094 -0.03326684 8.68603516 -0.03710938 C11.64906131 -0.04670001 14.61135908 -0.07764955 17.57421875 -0.109375 C36.86209394 -0.21873472 51.82826543 2.51782038 66.36328125 16.28125 C72.30162448 22.98091928 76.47231278 30.3182517 77.953125 39.203125 C70.033125 39.203125 62.113125 39.203125 53.953125 39.203125 C52.633125 36.563125 51.313125 33.923125 49.953125 31.203125 C47.94454459 29.13747121 47.94454459 29.13747121 45.640625 27.828125 C44.92261719 27.36664063 44.20460937 26.90515625 43.46484375 26.4296875 C36.30548286 22.93351437 29.52276475 22.86976376 21.67578125 22.7890625 C19.92605263 22.76001328 19.92605263 22.76001328 18.14097595 22.7303772 C14.43259892 22.67082396 10.72419044 22.62429271 7.015625 22.578125 C4.49412744 22.53992294 1.97264262 22.50086992 -0.54882812 22.4609375 C-6.71473027 22.36514233 -12.88070979 22.2800243 -19.046875 22.203125 C-17.5716005 18.72229504 -16.09100793 15.24375269 -14.609375 11.765625 C-14.18849609 10.77240234 -13.76761719 9.77917969 -13.33398438 8.75585938 C-12.93115234 7.81162109 -12.52832031 6.86738281 -12.11328125 5.89453125 C-11.74146729 5.01998291 -11.36965332 4.14543457 -10.98657227 3.24438477 C-8.85764156 -1.38019036 -4.51168459 0.02143246 0 0 Z " fill="#8726E9" transform="translate(139.046875,142.796875)"/>
<path d="M0 0 C2 1 2 1 2.6875 2.5625 C3.26229355 7.04588967 3.35655894 11.11985691 0.6640625 14.8515625 C-0.9375 16.5 -0.9375 16.5 -4 19 C-4.66 19 -5.32 19 -6 19 C-6 23.62 -6 28.24 -6 33 C-7.98 33 -9.96 33 -12 33 C-12 33.66 -12 34.32 -12 35 C-12.66 35 -13.32 35 -14 35 C-14 35.97582031 -14 36.95164063 -14 37.95703125 C-14 42.63802083 -14 47.31901042 -14 52 C-17.465 52.495 -17.465 52.495 -21 53 C-21.62529897 58.0247239 -22.13012092 62.92528427 -22 68 C-22.969375 67.979375 -23.93875 67.95875 -24.9375 67.9375 C-27.87465895 67.64381501 -27.87465895 67.64381501 -29 69 C-29.23653523 71.52596259 -29.42173692 74.03107207 -29.5625 76.5625 C-29.60568359 77.27341797 -29.64886719 77.98433594 -29.69335938 78.71679688 C-29.79971777 80.47761912 -29.90038846 82.2387832 -30 84 C-27.36 84 -24.72 84 -22 84 C-22 81.36 -22 78.72 -22 76 C-19.69 76 -17.38 76 -15 76 C-14.82984375 75.34773438 -14.6596875 74.69546875 -14.484375 74.0234375 C-12.98961902 68.63277496 -11.39793098 64.45246128 -8 60 C-6.80859375 61.59375 -6.80859375 61.59375 -6 64 C-7.16015625 67.03125 -7.16015625 67.03125 -9.0625 70.5 C-9.72609625 71.74165721 -10.38619862 72.98518741 -11.04296875 74.23046875 C-11.37474121 74.85614746 -11.70651367 75.48182617 -12.04833984 76.12646484 C-13.96538204 79.90054946 -15.48751821 83.84122942 -17.0546875 87.76953125 C-18 90 -18 90 -19 91 C-20.78071246 91.08726223 -22.5648314 91.10699041 -24.34765625 91.09765625 C-25.42724609 91.09443359 -26.50683594 91.09121094 -27.61914062 91.08789062 C-28.75544922 91.07951172 -29.89175781 91.07113281 -31.0625 91.0625 C-32.20267578 91.05798828 -33.34285156 91.05347656 -34.51757812 91.04882812 C-37.34510351 91.03699747 -40.1725264 91.0205141 -43 91 C-42.45636974 88.55879241 -41.9460975 86.91179591 -40.625 84.75 C-39.2708231 82.45831601 -38.42786238 80.54509699 -37.5625 78.0625 C-36.59742284 75.36329983 -35.69641964 73.54952592 -34.0625 71.125 C-32.37293535 68.56505357 -31.38026397 66.62266062 -30.3125 63.8125 C-27.36920023 56.11105949 -23.65743199 48.75168142 -20.10302734 41.31933594 C-17.6855243 36.23605154 -15.34304565 31.11794677 -13 26 C-12.34 26 -11.68 26 -11 26 C-10.87625 25.46375 -10.7525 24.9275 -10.625 24.375 C-8.33168284 15.6603948 -4.14951841 7.94420864 0 0 Z " fill="#A14DF0" transform="translate(126,92)"/>
<path d="M0 0 C3.238125 -0.0825 6.47625 -0.165 9.8125 -0.25 C10.82932861 -0.28641602 11.84615723 -0.32283203 12.89379883 -0.36035156 C14.10072388 -0.37533691 14.10072388 -0.37533691 15.33203125 -0.390625 C16.56530151 -0.4220459 16.56530151 -0.4220459 17.82348633 -0.45410156 C20 0 20 0 21.7668457 1.88793945 C23.84679743 5.4503355 23.57711409 8.996271 23 13 C22.46375 13.86625 21.9275 14.7325 21.375 15.625 C19.57914904 18.11491585 19.57914904 18.11491585 20.8125 21.8125 C21.204375 22.864375 21.59625 23.91625 22 25 C19.69 25 17.38 25 15 25 C14.34 22.69 13.68 20.38 13 18 C11.02 18 9.04 18 7 18 C7 20.31 7 22.62 7 25 C4.69 25 2.38 25 0 25 C0 16.75 0 8.5 0 0 Z " fill="#7413DD" transform="translate(122,198)"/>
<path d="M0 0 C2.31 0 4.62 0 7 0 C8.99609375 2.1171875 8.99609375 2.1171875 10.4375 4.875 C10.93121094 5.77992188 11.42492187 6.68484375 11.93359375 7.6171875 C13 10 13 10 13 12 C13.66 12 14.32 12 15 12 C15.37125 10.700625 15.37125 10.700625 15.75 9.375 C17.12477141 5.66311719 18.37495586 2.97977983 21 0 C23.31 0 25.62 0 28 0 C28 8.25 28 16.5 28 25 C26.02 25 24.04 25 22 25 C22 21.04 22 17.08 22 13 C21.34 13 20.68 13 20 13 C19.690625 13.78375 19.38125 14.5675 19.0625 15.375 C18 18 18 18 17 20 C15.02 20 13.04 20 11 20 C9.68 17.69 8.36 15.38 7 13 C6.67 16.96 6.34 20.92 6 25 C4.02 25 2.04 25 0 25 C0 16.75 0 8.5 0 0 Z " fill="#6F0DDE" transform="translate(77,198)"/>
<path d="M0 0 C2.97 0 5.94 0 9 0 C15.51936219 16.70842825 15.51936219 16.70842825 17 25 C14.69 25 12.38 25 10 25 C9.67 24.01 9.34 23.02 9 22 C5.7 21.67 2.4 21.34 -1 21 C-1 22.32 -1 23.64 -1 25 C-3.31 25 -5.62 25 -8 25 C-7.3440206 19.36412069 -5.43967159 14.39011658 -3.4375 9.125 C-3.10814453 8.24585938 -2.77878906 7.36671875 -2.43945312 6.4609375 C-1.63115163 4.30546686 -0.81623679 2.15247822 0 0 Z " fill="#731BD4" transform="translate(47,198)"/>
<path d="M0 0 C1.19140625 1.59375 1.19140625 1.59375 2 4 C0.83984375 7.03125 0.83984375 7.03125 -1.0625 10.5 C-1.72609625 11.74165721 -2.38619862 12.98518741 -3.04296875 14.23046875 C-3.54062744 15.16898682 -3.54062744 15.16898682 -4.04833984 16.12646484 C-5.96538204 19.90054946 -7.48751821 23.84122942 -9.0546875 27.76953125 C-10 30 -10 30 -11 31 C-12.78071246 31.08726223 -14.5648314 31.10699041 -16.34765625 31.09765625 C-17.42724609 31.09443359 -18.50683594 31.09121094 -19.61914062 31.08789062 C-20.75544922 31.07951172 -21.89175781 31.07113281 -23.0625 31.0625 C-24.20267578 31.05798828 -25.34285156 31.05347656 -26.51757812 31.04882812 C-29.34510351 31.03699747 -32.1725264 31.0205141 -35 31 C-34.44612036 28.49962904 -33.90868204 26.84912685 -32.5625 24.625 C-30.85276317 22.00476482 -30.85276317 22.00476482 -30.0625 18.75 C-29.711875 17.8425 -29.36125 16.935 -29 16 C-26.9375 15.3125 -26.9375 15.3125 -25 15 C-24.67 14.01 -24.34 13.02 -24 12 C-22.78613064 15.64160808 -23.3325305 16.33165469 -24.9375 19.6875 C-25.31777344 20.49574219 -25.69804688 21.30398437 -26.08984375 22.13671875 C-26.39019531 22.75160156 -26.69054687 23.36648437 -27 24 C-26.01 24 -25.02 24 -24 24 C-23.67 22.68 -23.34 21.36 -23 20 C-22.67 21.32 -22.34 22.64 -22 24 C-19.36 24 -16.72 24 -14 24 C-14 21.36 -14 18.72 -14 16 C-11.69 16 -9.38 16 -7 16 C-6.82984375 15.34773437 -6.6596875 14.69546875 -6.484375 14.0234375 C-4.98961902 8.63277496 -3.39793098 4.45246128 0 0 Z " fill="#A44DF7" transform="translate(118,152)"/>
<path d="M0 0 C1.87365234 0.01933594 1.87365234 0.01933594 3.78515625 0.0390625 C6.9375 0.375 6.9375 0.375 8.9375 2.375 C9.21200545 5.72396654 9.02378804 9.00976663 8.9375 12.375 C4.9775 12.375 1.0175 12.375 -3.0625 12.375 C-3.0625 13.365 -3.0625 14.355 -3.0625 15.375 C0.5675 15.375 4.1975 15.375 7.9375 15.375 C7.9375 16.695 7.9375 18.015 7.9375 19.375 C4.74443695 20.43935435 2.29306004 20.57565353 -1.0625 20.625 C-2.6403125 20.66367188 -2.6403125 20.66367188 -4.25 20.703125 C-7.0625 20.375 -7.0625 20.375 -8.9140625 19.26171875 C-10.61186965 16.47246414 -10.4595549 14.17589396 -10.4375 10.9375 C-10.44523438 9.80441406 -10.45296875 8.67132813 -10.4609375 7.50390625 C-9.57150069 0.5192113 -6.65462402 -0.15139786 0 0 Z " fill="#720EDC" transform="translate(158.0625,203.625)"/>
<path d="M0 0 C2.62527189 -0.05382106 5.24944713 -0.09358313 7.875 -0.125 C8.62136719 -0.14175781 9.36773437 -0.15851563 10.13671875 -0.17578125 C12.09194461 -0.1933959 14.04742021 -0.10320189 16 0 C18 2 18 2 18.1953125 5.9140625 C18.18200376 7.48449351 18.15813602 9.05486221 18.125 10.625 C18.11597656 11.42679688 18.10695312 12.22859375 18.09765625 13.0546875 C18.07406223 15.03658523 18.03819065 17.01832981 18 19 C16.783125 18.9896875 15.56625 18.979375 14.3125 18.96875 C11.17153574 18.96875 8.12036893 19.10995388 5 19.5 C4.236875 19.5928125 3.47375 19.685625 2.6875 19.78125 C2.130625 19.8534375 1.57375 19.925625 1 20 C-1.67927341 15.98108988 -1.15601248 13.75838077 -1 9 C-0.34 9 0.32 9 1 9 C1 8.34 1 7.68 1 7 C4.63 7 8.26 7 12 7 C11.67 6.34 11.34 5.68 11 5 C7.37 5 3.74 5 0 5 C0 3.35 0 1.7 0 0 Z " fill="#7516E3" transform="translate(172,204)"/>
<path d="M0 0 C5.22916908 0.13072923 8.1376499 2.06978205 11.8359375 5.50390625 C14.57263993 8.66049985 16.76796534 11.9992274 18.9375 15.5625 C19.32719971 16.19945801 19.71689941 16.83641602 20.1184082 17.49267578 C22.54104114 21.66040281 23.14599232 23.87595393 24 29 C16.41 29 8.82 29 1 29 C0.67 27.35 0.34 25.7 0 24 C3.16245541 22.9458482 5.86948218 22.68724328 9.1875 22.4375 C10.81751953 22.31181641 10.81751953 22.31181641 12.48046875 22.18359375 C13.31191406 22.12300781 14.14335937 22.06242187 15 22 C15 19.69 15 17.38 15 15 C12.69 15 10.38 15 8 15 C7.17361624 12.10765685 7 10.11257569 7 7 C4.69 7 2.38 7 0 7 C-0.93423645 3.98968256 -1.04449911 3.13349732 0 0 Z " fill="#7913E5" transform="translate(193,153)"/>
<path d="M0 0 C1.38294718 0.01329757 2.76582404 0.03715018 4.1484375 0.0703125 C4.85484375 0.07933594 5.56125 0.08835938 6.2890625 0.09765625 C8.03399848 0.12123647 9.77876045 0.15710789 11.5234375 0.1953125 C11.5234375 1.8453125 11.5234375 3.4953125 11.5234375 5.1953125 C7.8934375 5.1953125 4.2634375 5.1953125 0.5234375 5.1953125 C0.5234375 5.8553125 0.5234375 6.5153125 0.5234375 7.1953125 C1.21050781 7.16050781 1.89757812 7.12570313 2.60546875 7.08984375 C3.50652344 7.06277344 4.40757812 7.03570312 5.3359375 7.0078125 C6.22925781 6.97300781 7.12257812 6.93820313 8.04296875 6.90234375 C10.5234375 7.1953125 10.5234375 7.1953125 12.32421875 8.48828125 C14.32302347 11.33348537 13.88240399 13.84495857 13.5234375 17.1953125 C12.37109375 18.8984375 12.37109375 18.8984375 10.5234375 20.1953125 C7.74609375 20.5234375 7.74609375 20.5234375 4.5859375 20.4453125 C3.54566406 20.42984375 2.50539062 20.414375 1.43359375 20.3984375 C-1.02165925 20.22706414 -3.12853798 19.89689091 -5.4765625 19.1953125 C-5.4765625 17.8753125 -5.4765625 16.5553125 -5.4765625 15.1953125 C-1.1865625 15.1953125 3.1034375 15.1953125 7.5234375 15.1953125 C7.5234375 14.2053125 7.5234375 13.2153125 7.5234375 12.1953125 C3.5634375 12.1953125 -0.3965625 12.1953125 -4.4765625 12.1953125 C-6.65412303 7.84019144 -6.6582112 6.72496585 -5.4765625 2.1953125 C-3.4765625 0.1953125 -3.4765625 0.1953125 0 0 Z " fill="#7B1DE0" transform="translate(248.4765625,203.8046875)"/>
<path d="M0 0 C0.76166977 0.00222061 1.52333954 0.00444122 2.30809021 0.00672913 C3.16890701 0.00680466 4.02972382 0.00688019 4.91662598 0.00695801 C5.8520372 0.01211929 6.78744843 0.01728058 7.75120544 0.02259827 C8.70422043 0.02401321 9.65723541 0.02542816 10.63912964 0.02688599 C13.69605085 0.032503 16.75289996 0.04505836 19.80979919 0.05775452 C21.87685543 0.06276733 23.94391281 0.06733061 26.01097107 0.07142639 C31.08977507 0.08247795 36.16852489 0.09975397 41.24729919 0.12025452 C41.24729919 0.45025452 41.24729919 0.78025452 41.24729919 1.12025452 C29.36729919 1.45025452 17.48729919 1.78025452 5.24729919 2.12025452 C4.12603138 5.9181415 4.12603138 5.9181415 4.24729919 9.12025452 C1.93729919 9.45025452 -0.37270081 9.78025452 -2.75270081 10.12025452 C-3.08270081 13.42025452 -3.41270081 16.72025452 -3.75270081 20.12025452 C-2.91094299 20.10865295 -2.06918518 20.09705139 -1.20191956 20.08509827 C12.29523942 19.98698808 25.76361091 20.56386 39.24729919 21.12025452 C39.24729919 21.45025452 39.24729919 21.78025452 39.24729919 22.12025452 C22.41729919 22.12025452 5.58729919 22.12025452 -11.75270081 22.12025452 C-2.34144111 0.16064856 -2.34144111 0.16064856 0 0 Z " fill="#9E5CE8" transform="translate(131.75270080566406,142.87974548339844)"/>
<path d="M0 0 C4.95 0 9.9 0 15 0 C15 1.65 15 3.3 15 5 C11.37 5 7.74 5 4 5 C4 8.3 4 11.6 4 15 C7.63 15 11.26 15 15 15 C15 16.32 15 17.64 15 19 C9.31147144 20.13770571 3.58384613 20.86128204 -2 19 C-2.05411124 16.58303128 -2.09372278 14.16728213 -2.125 11.75 C-2.14175781 11.06808594 -2.15851563 10.38617188 -2.17578125 9.68359375 C-2.21528576 5.61462923 -1.87550339 3.75100679 0 0 Z " fill="#6D0DDB" transform="translate(196,204)"/>
<path d="M0 0 C1.98 0 3.96 0 6 0 C6 1.32 6 2.64 6 4 C7.65 4 9.3 4 11 4 C11 5.65 11 7.3 11 9 C9.35 9 7.7 9 6 9 C6 12.3 6 15.6 6 19 C7.98 19 9.96 19 12 19 C12 20.32 12 21.64 12 23 C10.37536158 23.05395478 8.75021459 23.09277195 7.125 23.125 C5.76761719 23.15980469 5.76761719 23.15980469 4.3828125 23.1953125 C2 23 2 23 0 21 C-0.1953125 18.1796875 -0.1953125 18.1796875 -0.125 14.875 C-0.10695312 13.77929688 -0.08890625 12.68359375 -0.0703125 11.5546875 C-0.04710937 10.71164063 -0.02390625 9.86859375 0 9 C-0.66 9 -1.32 9 -2 9 C-2 7.35 -2 5.7 -2 4 C-1.34 4 -0.68 4 0 4 C0 2.68 0 1.36 0 0 Z " fill="#710FDC" transform="translate(216,200)"/>
<path d="M0 0 C1.98 0 3.96 0 6 0 C6 7.59 6 15.18 6 23 C2.38863788 24.80568106 1.455469 25.24851563 -2.25 25.125 C-3.4875 25.08375 -4.725 25.0425 -6 25 C-6 23.35 -6 21.7 -6 20 C-4.35 19.67 -2.7 19.34 -1 19 C-0.67 12.73 -0.34 6.46 0 0 Z " fill="#7106DF" transform="translate(233,205)"/>
<path d="M0 0 C2.97 0 5.94 0 9 0 C8.67 1.32 8.34 2.64 8 4 C7.01 4 6.02 4 5 4 C4.01 5.485 4.01 5.485 3 7 C2.34 7 1.68 7 1 7 C1.33 9.31 1.66 11.62 2 14 C2.66 12.02 3.32 10.04 4 8 C6.5654594 10.5654594 6.54046087 12.47686668 7 16 C6.01 16.33 5.02 16.66 4 17 C4 17.66 4 18.32 4 19 C5.65 19 7.3 19 9 19 C9 19.33 9 19.66 9 20 C5.37 20.33 1.74 20.66 -2 21 C-2.33 21.99 -2.66 22.98 -3 24 C-4.32 23.67 -5.64 23.34 -7 23 C-7 19.38465419 -6.70077145 17.7091817 -5.46875 14.453125 C-5.15292969 13.60878906 -4.83710937 12.76445312 -4.51171875 11.89453125 C-4.01091797 10.58548828 -4.01091797 10.58548828 -3.5 9.25 C-3.16613281 8.36183594 -2.83226562 7.47367188 -2.48828125 6.55859375 C-1.66468885 4.37019109 -0.83311287 2.184796 0 0 Z " fill="#7309E7" transform="translate(47,198)"/>
<path d="M0 0 C5.61 0 11.22 0 17 0 C16.34 0.66 15.68 1.32 15 2 C15.33 2.66 15.66 3.32 16 4 C10.555 4.495 10.555 4.495 5 5 C5 9.62 5 14.24 5 19 C5.33 19 5.66 19 6 19 C6 20.98 6 22.96 6 25 C4.02 25 2.04 25 0 25 C0 16.75 0 8.5 0 0 Z " fill="#720FE1" transform="translate(122,198)"/>
<path d="M0 0 C2 1 2 1 2.6875 2.5625 C3.26229355 7.04588967 3.35655894 11.11985691 0.6640625 14.8515625 C-0.9375 16.5 -0.9375 16.5 -4 19 C-4.66 19 -5.32 19 -6 19 C-6 23.62 -6 28.24 -6 33 C-8.64 33 -11.28 33 -14 33 C-13.01 32.505 -13.01 32.505 -12 32 C-12.06574219 31.16984375 -12.13148437 30.3396875 -12.19921875 29.484375 C-11.95819248 25.2687783 -10.56988348 22.01640155 -8.8125 18.25 C-8.49659912 17.55132812 -8.18069824 16.85265625 -7.85522461 16.1328125 C-5.37438581 10.68765075 -2.76754643 5.30552679 0 0 Z " fill="#9B49EA" transform="translate(126,92)"/>
<path d="M0 0 C3.3 0 6.6 0 10 0 C10 1.32 10 2.64 10 4 C10.66 4.33 11.32 4.66 12 5 C12.33 4.34 12.66 3.68 13 3 C14 4 14 4 14.25 6.375 C14 9 14 9 12.85546875 10.6484375 C10.220976 12.56745748 8.28631696 12.32969881 5.0625 12.25 C4.02222656 12.23453125 2.98195312 12.2190625 1.91015625 12.203125 C-0.54509675 12.03175164 -2.65197548 11.70157841 -5 11 C-5 9.68 -5 8.36 -5 7 C-0.71 7 3.58 7 8 7 C8 6.01 8 5.02 8 4 C4.7 4 1.4 4 -2 4 C-1.34 2.68 -0.68 1.36 0 0 Z " fill="#7309ED" transform="translate(248,212)"/>
<path d="M0 0 C1.62490954 -0.02698189 3.24994633 -0.04638757 4.875 -0.0625 C5.77992188 -0.07410156 6.68484375 -0.08570313 7.6171875 -0.09765625 C10 0 10 0 12 1 C12 3.31 12 5.62 12 8 C9.69 8 7.38 8 5 8 C5 8.66 5 9.32 5 10 C5.66 10.33 6.32 10.66 7 11 C6.67 11.66 6.34 12.32 6 13 C3.125 13.1875 3.125 13.1875 0 13 C-2.67927341 8.98108988 -2.15601248 6.75838077 -2 2 C-1.34 2 -0.68 2 0 2 C0 1.34 0 0.68 0 0 Z " fill="#7E31DA" transform="translate(173,211)"/>
<path d="M0 0 C0.70125 0.495 1.4025 0.99 2.125 1.5 C5.37119719 3.1936681 7.39340156 3.25162315 11 3 C11 4.32 11 5.64 11 7 C8.36 7.66 5.72 8.32 3 9 C3.33 9.99 3.66 10.98 4 12 C3.67 12.99 3.34 13.98 3 15 C3.99 15.33 4.98 15.66 6 16 C6 16.66 6 17.32 6 18 C8.31 18 10.62 18 13 18 C13 18.33 13 18.66 13 19 C11.06318839 19.08107583 9.1254066 19.13922475 7.1875 19.1875 C6.10855469 19.22230469 5.02960938 19.25710937 3.91796875 19.29296875 C1 19 1 19 -0.8671875 17.89453125 C-2.54944102 15.08110725 -2.36005972 12.74869488 -2.3125 9.5 C-2.30863281 8.3553125 -2.30476562 7.210625 -2.30078125 6.03125 C-2 3 -2 3 0 0 Z " fill="#8728E7" transform="translate(150,205)"/>
<path d="M0 0 C1.19140625 1.59375 1.19140625 1.59375 2 4 C0.83984375 7.03125 0.83984375 7.03125 -1.0625 10.5 C-1.72473122 11.74039043 -2.38353128 12.9826182 -3.0390625 14.2265625 C-3.37067383 14.85208008 -3.70228516 15.47759766 -4.04394531 16.12207031 C-6.32914617 20.61077434 -8.14110384 25.32277741 -10 30 C-10.33 29.34 -10.66 28.68 -11 28 C-11.66 28 -12.32 28 -13 28 C-13.98248524 23.9472484 -14.08159574 20.16138263 -14 16 C-11.69 16 -9.38 16 -7 16 C-6.82984375 15.34773437 -6.6596875 14.69546875 -6.484375 14.0234375 C-4.98961902 8.63277496 -3.39793098 4.45246128 0 0 Z " fill="#A65EEF" transform="translate(118,152)"/>
<path d="M0 0 C0.33 0.66 0.66 1.32 1 2 C0.29296875 4.05859375 0.29296875 4.05859375 -0.8125 6.4375 C-1.16957031 7.21996094 -1.52664062 8.00242188 -1.89453125 8.80859375 C-3 11 -3 11 -5 14 C-3.02 14 -1.04 14 1 14 C1 13.34 1 12.68 1 12 C12.22 12 23.44 12 35 12 C35 12.33 35 12.66 35 13 C36.98 13.33 38.96 13.66 41 14 C41 14.33 41 14.66 41 15 C40.17980881 15.00879936 40.17980881 15.00879936 39.3430481 15.01777649 C33.66536481 15.08158104 27.98825521 15.16596575 22.31103516 15.26245117 C20.19066926 15.2957596 18.07021343 15.3237729 15.94970703 15.34643555 C12.90618465 15.37987303 9.86349088 15.43218253 6.8203125 15.48828125 C5.39212692 15.49786613 5.39212692 15.49786613 3.93508911 15.50764465 C2.61394608 15.53733589 2.61394608 15.53733589 1.26611328 15.56762695 C0.48889923 15.57873001 -0.28831482 15.58983307 -1.08908081 15.60127258 C-3.40778655 15.85203989 -3.40778655 15.85203989 -5 19 C-5.33 18.34 -5.66 17.68 -6 17 C-6.99 17.66 -7.98 18.32 -9 19 C-7.6077541 14.37324343 -5.70479016 10.35313769 -3.375 6.125 C-2.74335938 4.97257813 -2.11171875 3.82015625 -1.4609375 2.6328125 C-0.97882813 1.76398438 -0.49671875 0.89515625 0 0 Z " fill="#F5E7FC" transform="translate(133,128)"/>
<path d="M0 0 C0.375 2.1875 0.375 2.1875 0 5 C-4.24185384 9.14759043 -7.38572707 11.12400343 -13.2890625 11.1328125 C-14.56680542 11.13571289 -14.56680542 11.13571289 -15.87036133 11.13867188 C-17.23390747 11.1319043 -17.23390747 11.1319043 -18.625 11.125 C-19.55401123 11.12306641 -20.48302246 11.12113281 -21.44018555 11.11914062 C-29.98380685 11.06664078 -38.48119681 10.62523326 -47 10 C-47 9.67 -47 9.34 -47 9 C-37.3412592 8.31532977 -27.75254611 7.87705077 -18.06689453 8.03710938 C-13.92227228 8.08625883 -10.06485354 7.81937205 -6 7 C-5.9175 6.21625 -5.835 5.4325 -5.75 4.625 C-5 2 -5 2 -3 0.6875 C-1 0 -1 0 0 0 Z " fill="#8B27ED" transform="translate(182,128)"/>
<path d="M0 0 C2.0625 0.4375 2.0625 0.4375 4 1 C3.67 1.66 3.34 2.32 3 3 C3.99 3.33 4.98 3.66 6 4 C5.34 9.61 4.68 15.22 4 21 C2.35 21 0.7 21 -1 21 C-1 20.34 -1 19.68 -1 19 C-0.01 18.67 0.98 18.34 2 18 C1.01 17.67 0.02 17.34 -1 17 C-1.02684679 14.35409986 -1.04676357 11.70846904 -1.0625 9.0625 C-1.07087891 8.30775391 -1.07925781 7.55300781 -1.08789062 6.77539062 C-1.09652441 4.85005687 -1.05224333 2.92464419 -1 1 C-0.67 0.67 -0.34 0.34 0 0 Z " fill="#7208E3" transform="translate(79,199)"/>
<path d="M0 0 C2.60478883 -0.0809313 5.20706653 -0.14045434 7.8125 -0.1875 C8.55048828 -0.21263672 9.28847656 -0.23777344 10.04882812 -0.26367188 C15.50994531 -0.33780469 15.50994531 -0.33780469 18.01171875 1.38671875 C19 3 19 3 19 5 C12.07 5 5.14 5 -2 5 C-1.34 3.35 -0.68 1.7 0 0 Z " fill="#F4F0F4" transform="translate(144,113)"/>
<path d="M0 0 C2.475 0.495 2.475 0.495 5 1 C7.23167185 0.63143136 7.23167185 0.63143136 9 0 C7.56835889 3.65938172 6.01065704 7.23988068 4.375 10.8125 C3.70597656 12.27623047 3.70597656 12.27623047 3.0234375 13.76953125 C2.68570313 14.50558594 2.34796875 15.24164063 2 16 C1.34 16 0.68 16 0 16 C0 10.72 0 5.44 0 0 Z " fill="#9846EA" transform="translate(120,136)"/>
<path d="M0 0 C-0.33 0.66 -0.66 1.32 -1 2 C-0.34 2.33 0.32 2.66 1 3 C1 3.66 1 4.32 1 5 C-5.875 4.125 -5.875 4.125 -7 3 C-10.02977804 2.91128727 -13.03667022 2.8848065 -16.06640625 2.90234375 C-16.97502914 2.9037587 -17.88365204 2.90517365 -18.81980896 2.90663147 C-21.73407221 2.91224807 -24.64825981 2.92480335 -27.5625 2.9375 C-29.53320202 2.94251286 -31.50390524 2.94707614 -33.47460938 2.95117188 C-38.31643559 2.96222289 -43.15820495 2.97949862 -48 3 C-48 2.67 -48 2.34 -48 2 C-47.05793701 1.98018066 -46.11587402 1.96036133 -45.14526367 1.93994141 C-41.59832275 1.86112534 -38.05174685 1.77441471 -34.50512695 1.68261719 C-32.97981 1.64469716 -31.4544148 1.60978517 -29.92895508 1.578125 C-21.88217788 1.40910835 -14.07203091 1.16009139 -6.19262695 -0.68212891 C-3.81978223 -1.02612666 -2.26249778 -0.73680771 0 0 Z " fill="#EEF6E6" transform="translate(183,139)"/>
<path d="M0 0 C0.33 0 0.66 0 1 0 C1 7.59 1 15.18 1 23 C-2.61136212 24.80568106 -3.544531 25.24851563 -7.25 25.125 C-8.4875 25.08375 -9.725 25.0425 -11 25 C-11 23.35 -11 21.7 -11 20 C-7.7 19.67 -4.4 19.34 -1 19 C-0.67 12.73 -0.34 6.46 0 0 Z " fill="#7921DC" transform="translate(238,205)"/>
<path d="M0 0 C5.61 0.33 11.22 0.66 17 1 C17 1.99 17 2.98 17 4 C12.71 4 8.42 4 4 4 C4 5.32 4 6.64 4 8 C3.01 8 2.02 8 1 8 C1 9.65 1 11.3 1 13 C0.67 13 0.34 13 0 13 C0 8.71 0 4.42 0 0 Z " fill="#E2CFF1" transform="translate(239,215)"/>
<path d="M0 0 C0.33 0.99 0.66 1.98 1 3 C-0.12890625 4.484375 -0.12890625 4.484375 -2 6 C-4.77734375 6.328125 -4.77734375 6.328125 -7.9375 6.25 C-8.97777344 6.23453125 -10.01804688 6.2190625 -11.08984375 6.203125 C-13.54509675 6.03175164 -15.65197548 5.70157841 -18 5 C-18 3.68 -18 2.36 -18 1 C-17.09636719 1.08378906 -16.19273437 1.16757813 -15.26171875 1.25390625 C-14.08222656 1.35574219 -12.90273437 1.45757812 -11.6875 1.5625 C-10.51574219 1.66691406 -9.34398437 1.77132812 -8.13671875 1.87890625 C-4.96967425 2.18577434 -4.96967425 2.18577434 -2 1 C-1.34 1.33 -0.68 1.66 0 2 C0 1.34 0 0.68 0 0 Z " fill="#720AE4" transform="translate(261,218)"/>
<path d="M0 0 C0.33 0 0.66 0 1 0 C1 1.98 1 3.96 1 6 C1.99 6 2.98 6 4 6 C4 8.64 4 11.28 4 14 C3.01 14 2.02 14 1 14 C0.34 14.66 -0.32 15.32 -1 16 C-1 14.68 -1 13.36 -1 12 C-4.63 12 -8.26 12 -12 12 C-12 11.01 -12 10.02 -12 9 C-8.04 9 -4.08 9 0 9 C0 6.03 0 3.06 0 0 Z " fill="#D7BCEE" transform="translate(167,207)"/>
<path d="M0 0 C0.66 0 1.32 0 2 0 C2.27565727 2.60376274 2.52127265 5.20455968 2.75 7.8125 C2.83121094 8.55048828 2.91242188 9.28847656 2.99609375 10.04882812 C3.171875 12.20703125 3.171875 12.20703125 3 16 C1.0625 17.84375 1.0625 17.84375 -1 19 C-1.8042208 21.59855733 -1.8042208 21.59855733 -2 24 C-7.24385089 25.7479503 -11.47322267 26.19392201 -17 26 C-17 25.67 -17 25.34 -17 25 C-16.33613281 24.84144531 -15.67226562 24.68289062 -14.98828125 24.51953125 C-9.38397719 23.03868594 -5.64131031 21.77921978 -2 17 C-0.08159639 13.10282343 0.21995633 10.00801304 0.125 5.6875 C0.10695312 4.61886719 0.08890625 3.55023438 0.0703125 2.44921875 C0.04710937 1.64097656 0.02390625 0.83273438 0 0 Z " fill="#ECDFF6" transform="translate(185,114)"/>
<path d="M0 0 C0 3 0 3 -2.375 5.6875 C-5 8 -5 8 -7 8 C-7 12.62 -7 17.24 -7 22 C-9.64 22 -12.28 22 -15 22 C-14.34 21.67 -13.68 21.34 -13 21 C-13 19.02 -13 17.04 -13 15 C-12.01 15 -11.02 15 -10 15 C-9.773125 13.7625 -9.54625 12.525 -9.3125 11.25 C-8.26989944 7.02746775 -6.67250614 5.41847965 -3 3 C-1.9826127 2.01769502 -0.97403883 1.02530403 0 0 Z " fill="#9C41F3" transform="translate(127,103)"/>
<path d="M0 0 C1.9480957 0.00483398 1.9480957 0.00483398 3.93554688 0.00976562 C5.30729233 0.01812094 6.67903712 0.02658588 8.05078125 0.03515625 C9.4342432 0.0401729 10.81770688 0.04473552 12.20117188 0.04882812 C15.5885852 0.06063096 18.97591158 0.07709606 22.36328125 0.09765625 C22.36328125 0.75765625 22.36328125 1.41765625 22.36328125 2.09765625 C6.52328125 2.59265625 6.52328125 2.59265625 -9.63671875 3.09765625 C-9.63671875 2.43765625 -9.63671875 1.77765625 -9.63671875 1.09765625 C-6.21920222 -0.04151593 -3.60183938 -0.01572856 0 0 Z " fill="#9332EC" transform="translate(137.63671875,159.90234375)"/>
<path d="M0 0 C0.66 0 1.32 0 2 0 C2.86883706 1.57533086 3.71959068 3.16064509 4.5625 4.75 C5.03816406 5.63171875 5.51382813 6.5134375 6.00390625 7.421875 C7.07998186 10.20701188 7.06528748 11.26980214 6 14 C4.02 14 2.04 14 0 14 C0 9.38 0 4.76 0 0 Z " fill="#8228DF" transform="translate(176,98)"/>
<path d="M0 0 C2.76650185 6.01872541 2.00395518 11.94034104 1.625 18.375 C1.56828125 19.49261719 1.5115625 20.61023438 1.453125 21.76171875 C1.31226356 24.50851688 1.16091224 27.25431568 1 30 C0.34 30 -0.32 30 -1 30 C-1 20.76 -1 11.52 -1 2 C-2.65 2 -4.3 2 -6 2 C-3 0 -3 0 0 0 Z " fill="#EDF4E7" transform="translate(107,194)"/>
<path d="M0 0 C0.33 0 0.66 0 1 0 C1 2.64 1 5.28 1 8 C2.98 8.66 4.96 9.32 7 10 C7 10.33 7 10.66 7 11 C4.03 11 1.06 11 -2 11 C-2.33 11.99 -2.66 12.98 -3 14 C3.93 14 10.86 14 18 14 C18 14.33 18 14.66 18 15 C10.08 15 2.16 15 -6 15 C-5 11 -5 11 -3.5625 8.625 C-1.8949424 5.82350323 -0.94086702 3.1120986 0 0 Z " fill="#B57DEB" transform="translate(89,168)"/>
<path d="M0 0 C0.33 0 0.66 0 1 0 C0.63495936 5.66442374 -0.0554321 10.00703705 -3 15 C-3.66 14.34 -4.32 13.68 -5 13 C-5.66 14.32 -6.32 15.64 -7 17 C-7.66 17 -8.32 17 -9 17 C-9 17.99 -9 18.98 -9 20 C-9.66 19.67 -10.32 19.34 -11 19 C-9.92424145 16.76689448 -8.83977517 14.53875499 -7.75 12.3125 C-7.44964844 11.68666016 -7.14929688 11.06082031 -6.83984375 10.41601562 C-4.93891799 6.55349627 -2.89522101 3.23547134 0 0 Z " fill="#F2EAEE" transform="translate(127,143)"/>
<path d="M0 0 C2.97 0 5.94 0 9 0 C9 2.31 9 4.62 9 7 C6.03 7 3.06 7 0 7 C0 4.69 0 2.38 0 0 Z " fill="#F8E5FB" transform="translate(129,203)"/>
<path d="M0 0 C0.66 0.33 1.32 0.66 2 1 C2 1.66 2 2.32 2 3 C0.576875 3.0928125 0.576875 3.0928125 -0.875 3.1875 C-2.421875 3.5896875 -2.421875 3.5896875 -4 4 C-5.39666197 6.47590076 -6 8.16264185 -6 11 C-6.99 10.67 -7.98 10.34 -9 10 C-10.39431504 7.21136993 -10.25660094 5.07921132 -10 2 C-6.33134759 -0.44576827 -4.32799657 -0.23607254 0 0 Z " fill="#700BD8" transform="translate(182,212)"/>
<path d="M0 0 C0.66 0 1.32 0 2 0 C2 2.31 2 4.62 2 7 C4.97 7 7.94 7 11 7 C8.4345406 9.5654594 6.52313332 9.54046087 3 10 C4.32 10.99 5.64 11.98 7 13 C5.35 13 3.7 13 2 13 C2 15.31 2 17.62 2 20 C-0.92746298 17.55431378 -0.92746298 17.55431378 -1.2487793 15.09887695 C-1.19117432 14.40238037 -1.13356934 13.70588379 -1.07421875 12.98828125 C-1.01943359 12.23095703 -0.96464844 11.47363281 -0.90820312 10.69335938 C-0.83537109 9.90767578 -0.76253906 9.12199219 -0.6875 8.3125 C-0.62626953 7.51521484 -0.56503906 6.71792969 -0.50195312 5.89648438 C-0.34886031 3.92983047 -0.17629291 1.96471011 0 0 Z " fill="#8838DD" transform="translate(127,203)"/>
<path d="M0 0 C1.051875 0.2475 1.051875 0.2475 2.125 0.5 C5.13888194 1.02415338 7.94713625 1.07099683 11 1 C11 2.32 11 3.64 11 5 C10.15115234 5.16435547 10.15115234 5.16435547 9.28515625 5.33203125 C8.55167969 5.49058594 7.81820312 5.64914063 7.0625 5.8125 C6.33160156 5.96332031 5.60070312 6.11414063 4.84765625 6.26953125 C4.23792969 6.51058594 3.62820312 6.75164062 3 7 C2.67 7.99 2.34 8.98 2 10 C1.34 10 0.68 10 0 10 C0 6.7 0 3.4 0 0 Z " fill="#7209E3" transform="translate(150,207)"/>
<path d="M0 0 C2.31 0 4.62 0 7 0 C6.67 0.66 6.34 1.32 6 2 C4.68 2 3.36 2 2 2 C1.67 7.28 1.34 12.56 1 18 C2.32 18.33 3.64 18.66 5 19 C3.68 19.33 2.36 19.66 1 20 C3.475 20.99 3.475 20.99 6 22 C6 22.99 6 23.98 6 25 C4.02 25 2.04 25 0 25 C0 16.75 0 8.5 0 0 Z " fill="#6D13D6" transform="translate(77,198)"/>
<path d="M0 0 C0 1.32 0 2.64 0 4 C-5.68852856 5.13770571 -11.41615387 5.86128204 -17 4 C-16.67 3.34 -16.34 2.68 -16 2 C-13.6875 1.4375 -13.6875 1.4375 -11 1 C-10.071875 0.7215625 -10.071875 0.7215625 -9.125 0.4375 C-6.07693273 -0.19004326 -3.10094349 -0.05963353 0 0 Z " fill="#7B20DB" transform="translate(211,219)"/>
<path d="M0 0 C2.64 0 5.28 0 8 0 C8 0.33 8 0.66 8 1 C5.69 1 3.38 1 1 1 C0.45627049 4.05847848 0 6.88772805 0 10 C-0.45849866 13.14399078 -0.99391425 15.98174275 -2 19 C-4.0625 19.6875 -4.0625 19.6875 -6 20 C-5.36757331 15.27497299 -4.08186437 11.09429803 -2.4375 6.625 C-2.20353516 5.98433594 -1.96957031 5.34367188 -1.72851562 4.68359375 C-1.15700381 3.1206839 -0.57915771 1.56009273 0 0 Z " fill="#6F15CD" transform="translate(47,198)"/>
<path d="M0 0 C0.33 0 0.66 0 1 0 C1 1.65 1 3.3 1 5 C1.99 4.67 2.98 4.34 4 4 C5.39439664 3.93334624 6.79169875 3.91461801 8.1875 3.9375 C10.0746875 3.9684375 10.0746875 3.9684375 12 4 C12.33 4.99 12.66 5.98 13 7 C9.37 7 5.74 7 2 7 C2 7.66 2 8.32 2 9 C0.35 9 -1.3 9 -3 9 C-3 7.68 -3 6.36 -3 5 C-2.01 5 -1.02 5 0 5 C0 3.35 0 1.7 0 0 Z " fill="#F3EAED" transform="translate(171,204)"/>
<path d="M0 0 C1.09716797 1.75683594 1.09716797 1.75683594 2 4 C1.49267578 5.92285156 1.49267578 5.92285156 0.4453125 7.890625 C0.07792969 8.59960938 -0.28945312 9.30859375 -0.66796875 10.0390625 C-1.06628906 10.76867187 -1.46460937 11.49828125 -1.875 12.25 C-2.26558594 12.99507812 -2.65617187 13.74015625 -3.05859375 14.5078125 C-4.02486093 16.34607689 -5.01060566 18.17407911 -6 20 C-7.60272653 14.35810513 -5.69977671 9.08388059 -2.90625 4.015625 C-1.98970627 2.6408094 -1.00242011 1.313516 0 0 Z " fill="#964DE3" transform="translate(118,152)"/>
<path d="M0 0 C2.52631142 3.12781414 4.42373366 6.29577411 6 10 C5.67 10.99 5.34 11.98 5 13 C3.02 13.33 1.04 13.66 -1 14 C-1.18451025 4.58997722 -1.18451025 4.58997722 0 0 Z " fill="#8225E2" transform="translate(169,82)"/>
<path d="M0 0 C1.65 0 3.3 0 5 0 C5 1.65 5 3.3 5 5 C3.35 5 1.7 5 0 5 C0 7.31 0 9.62 0 12 C-0.33 11.34 -0.66 10.68 -1 10 C-1.66 10 -2.32 10 -3 10 C-3.33 10.66 -3.66 11.32 -4 12 C-4 10.68 -4 9.36 -4 8 C-4.66 8 -5.32 8 -6 8 C-6.33 6.02 -6.66 4.04 -7 2 C-6.01 2 -5.02 2 -4 2 C-4.33 3.32 -4.66 4.64 -5 6 C-4.2575 5.484375 -3.515 4.96875 -2.75 4.4375 C0 3 0 3 2.3125 3.3125 C3.1478125 3.6528125 3.1478125 3.6528125 4 4 C4 3.01 4 2.02 4 1 C2.68 1.33 1.36 1.66 0 2 C0 1.34 0 0.68 0 0 Z " fill="#6E12D5" transform="translate(222,204)"/>
<path d="M0 0 C1.0528418 0.02707031 1.0528418 0.02707031 2.12695312 0.0546875 C3.85605436 0.10173787 5.58445205 0.17348127 7.3125 0.25 C6.9825 1.57 6.6525 2.89 6.3125 4.25 C6.3125 3.26 6.3125 2.27 6.3125 1.25 C4.52009337 1.36389875 2.72855165 1.49147687 0.9375 1.625 C-0.06023437 1.69460937 -1.05796875 1.76421875 -2.0859375 1.8359375 C-4.84258879 2.01363964 -4.84258879 2.01363964 -6.6875 4.25 C-6.85431109 7.33347826 -6.85431109 7.33347826 -6.6875 10.25 C-7.6775 10.25 -8.6675 10.25 -9.6875 10.25 C-11.01073232 4.95707071 -11.01073232 4.95707071 -9.6875 2.0625 C-6.72738522 -0.62010402 -3.7761193 -0.18334099 0 0 Z " fill="#6E18D9" transform="translate(252.6875,203.75)"/>
<path d="M0 0 C1.79240663 0.11389875 3.58394835 0.24147687 5.375 0.375 C6.87160156 0.47941406 6.87160156 0.47941406 8.3984375 0.5859375 C11 1 11 1 13 3 C13.1953125 5.8203125 13.1953125 5.8203125 13.125 9.125 C13.10695312 10.22070312 13.08890625 11.31640625 13.0703125 12.4453125 C13.04710937 13.28835937 13.02390625 14.13140625 13 15 C12.01 15 11.02 15 10 15 C10.66 12.36 11.32 9.72 12 7 C11.34 6.67 10.68 6.34 10 6 C10 5.34 10 4.68 10 4 C6.7 4 3.4 4 0 4 C0 2.68 0 1.36 0 0 Z " fill="#700BDA" transform="translate(173,205)"/>
<path d="M0 0 C0 0.66 0 1.32 0 2 C2.64 2.33 5.28 2.66 8 3 C6 5 6 5 3.93701172 5.13525391 C3.10959473 5.08288574 2.28217773 5.03051758 1.4296875 4.9765625 C0.53378906 4.925 -0.36210937 4.8734375 -1.28515625 4.8203125 C-2.22230469 4.75585938 -3.15945312 4.69140625 -4.125 4.625 C-5.06988281 4.56828125 -6.01476562 4.5115625 -6.98828125 4.453125 C-9.32626481 4.31142903 -11.66320944 4.16000217 -14 4 C-13.67 3.01 -13.34 2.02 -13 1 C-8.59085217 -0.10228696 -4.51617599 -0.07654536 0 0 Z " fill="#EADEF9" transform="translate(136,194)"/>
<path d="M0 0 C0.66 0 1.32 0 2 0 C2 3.96 2 7.92 2 12 C1.67 11.34 1.34 10.68 1 10 C-0.32 10 -1.64 10 -3 10 C-3 9.34 -3 8.68 -3 8 C-4.98 8 -6.96 8 -9 8 C-9 7.67 -9 7.34 -9 7 C-7.02 7 -5.04 7 -3 7 C-2.690625 6.21625 -2.38125 5.4325 -2.0625 4.625 C-1 2 -1 2 0 0 Z " fill="#E4CEF3" transform="translate(97,211)"/>
<path d="M0 0 C0.375 2.1875 0.375 2.1875 0 5 C-4.37677039 9.81444743 -7.59458665 10.66868552 -14 11 C-11 9 -11 9 -8.375 8.1875 C-7.59125 7.795625 -6.8075 7.40375 -6 7 C-5.62690101 5.34178227 -5.29299023 3.67422986 -5 2 C-1.95238095 0 -1.95238095 0 0 0 Z " fill="#7E20E3" transform="translate(182,128)"/>
<path d="M0 0 C2.97 0 5.94 0 9 0 C9 0.66 9 1.32 9 2 C9.99 2.66 10.98 3.32 12 4 C11.34 5.98 10.68 7.96 10 10 C8.35 9.67 6.7 9.34 5 9 C5 8.67 5 8.34 5 8 C6.65 8 8.3 8 10 8 C10 6.68 10 5.36 10 4 C8.02 4 6.04 4 4 4 C3.67 5.32 3.34 6.64 3 8 C3 6.68 3 5.36 3 4 C2.01 3.67 1.02 3.34 0 3 C0 2.01 0 1.02 0 0 Z " fill="#690ECB" transform="translate(151,204)"/>
<path d="M0 0 C0.33 0 0.66 0 1 0 C1.33 4.62 1.66 9.24 2 14 C1.34 14 0.68 14 0 14 C0 15.98 0 17.96 0 20 C-0.66 20.33 -1.32 20.66 -2 21 C-2.66 19.02 -3.32 17.04 -4 15 C-3.34 15 -2.68 15 -2 15 C-1.06051636 11.85126186 -0.92255192 9.08952193 -1 5.8125 C-1.037569 4.20877332 -1.04673183 2.60348584 -1 1 C-0.67 0.67 -0.34 0.34 0 0 Z " fill="#F0E2F6" transform="translate(145,200)"/>
<path d="M0 0 C0.66 0.33 1.32 0.66 2 1 C2.625 3.5625 2.625 3.5625 3 6 C3.33 5.34 3.66 4.68 4 4 C4.66 4.33 5.32 4.66 6 5 C5.34 6.32 4.68 7.64 4 9 C3.34 8.67 2.68 8.34 2 8 C2 8.66 2 9.32 2 10 C1.01 10 0.02 10 -1 10 C-1 9.01 -1 8.02 -1 7 C-1.66 7 -2.32 7 -3 7 C-1.125 1.125 -1.125 1.125 0 0 Z " fill="#7A1EE2" transform="translate(95,203)"/>
<path d="M0 0 C2.31 0 4.62 0 7 0 C7 0.99 7 1.98 7 3 C6.34 3.66 5.68 4.32 5 5 C5.66 5.33 6.32 5.66 7 6 C6.67 6.33 6.34 6.66 6 7 C4.35130683 6.96219927 2.70405968 6.84529698 1.0625 6.6875 C-0.28134766 6.56955078 -0.28134766 6.56955078 -1.65234375 6.44921875 C-4 6 -4 6 -6 4 C-2.535 3.505 -2.535 3.505 1 3 C0.67 2.01 0.34 1.02 0 0 Z " fill="#8129DC" transform="translate(177,160)"/>
<path d="M0 0 C1.4540625 0.0309375 1.4540625 0.0309375 2.9375 0.0625 C2.9375 2.0425 2.9375 4.0225 2.9375 6.0625 C0.6275 6.0625 -1.6825 6.0625 -4.0625 6.0625 C-4.105221 4.39638095 -4.10313832 2.72867115 -4.0625 1.0625 C-3.0625 0.0625 -3.0625 0.0625 0 0 Z " fill="#9C66E0" transform="translate(236.0625,196.9375)"/>
<path d="M0 0 C3.3 0 6.6 0 10 0 C10 0.33 10 0.66 10 1 C7.36 1 4.72 1 2 1 C1.896875 1.825 1.79375 2.65 1.6875 3.5 C0.88353944 7.59289012 -0.46352158 11.12540225 -2 15 C-3.17246771 10.90097902 -3.07076062 7.24563742 -3 3 C-2.67 3.66 -2.34 4.32 -2 5 C-1.34 5 -0.68 5 0 5 C0 3.35 0 1.7 0 0 Z " fill="#ECD3FB" transform="translate(45,197)"/>
<path d="M0 0 C0.99 0.33 1.98 0.66 3 1 C3 1.99 3 2.98 3 4 C3.66 4 4.32 4 5 4 C5.33 3.34 5.66 2.68 6 2 C6.66 3.32 7.32 4.64 8 6 C5 8 5 8 2.3125 7.625 C1.549375 7.41875 0.78625 7.2125 0 7 C0 4.69 0 2.38 0 0 Z " fill="#7610E4" transform="translate(200,160)"/>
<path d="M0 0 C2.64 0 5.28 0 8 0 C7.835 0.763125 7.67 1.52625 7.5 2.3125 C6.90854604 5.03596236 6.90854604 5.03596236 7 8 C5.68 8 4.36 8 3 8 C3 6.68 3 5.36 3 4 C3.66 4 4.32 4 5 4 C5 3.01 5 2.02 5 1 C3.68 1.33 2.36 1.66 1 2 C0.67 3.65 0.34 5.3 0 7 C-0.66 7 -1.32 7 -2 7 C-1.34 4.69 -0.68 2.38 0 0 Z " fill="#9B46EA" transform="translate(129,144)"/>
<path d="M0 0 C2 1 2 1 2.8515625 3.06640625 C3.10679687 3.89011719 3.36203125 4.71382813 3.625 5.5625 C3.88539063 6.38878906 4.14578125 7.21507813 4.4140625 8.06640625 C4.60742188 8.70449219 4.80078125 9.34257813 5 10 C3.68 9.34 2.36 8.68 1 8 C1 7.34 1 6.68 1 6 C-1.61527381 8.36620011 -3.26440562 10.942048 -5 14 C-5.33 13.34 -5.66 12.68 -6 12 C-4.78515625 9.1796875 -4.78515625 9.1796875 -3.0625 5.875 C-2.49660156 4.77929688 -1.93070313 3.68359375 -1.34765625 2.5546875 C-0.90292969 1.71164063 -0.45820313 0.86859375 0 0 Z " fill="#F0E0F7" transform="translate(150,92)"/>
<path d="M0 0 C4.5 5.625 4.5 5.625 5 9 C4.01 9 3.02 9 2 9 C2 10.98 2 12.96 2 15 C1.34 14.67 0.68 14.34 0 14 C0 9.38 0 4.76 0 0 Z " fill="#E2C1F2" transform="translate(83,209)"/>
<path d="M0 0 C4.52115916 1.46272796 7.60775076 3.68313407 11 7 C12.375 10.3125 12.375 10.3125 13 13 C11.68 12.34 10.36 11.68 9 11 C9 9.68 9 8.36 9 7 C8.01 7 7.02 7 6 7 C4.5 5.625 4.5 5.625 3 4 C2.01 3.34 1.02 2.68 0 2 C0 1.34 0 0.68 0 0 Z " fill="#F3E5FB" transform="translate(180,168)"/>
<path d="M0 0 C0.66 0.33 1.32 0.66 2 1 C-0.64 6.61 -3.28 12.22 -6 18 C-7.46418327 12.14326692 -4.6884708 8.17013615 -2 3 C-1.34 3 -0.68 3 0 3 C0 2.01 0 1.02 0 0 Z " fill="#F5E6F9" transform="translate(103,136)"/>
<path d="M0 0 C0.66 0.33 1.32 0.66 2 1 C1.67 3.97 1.34 6.94 1 10 C0.34 9.34 -0.32 8.68 -1 8 C-1.99 9.98 -2.98 11.96 -4 14 C-4.66 14 -5.32 14 -6 14 C-4.50829734 9.0276578 -2.39542583 4.58154261 0 0 Z " fill="#984DE7" transform="translate(141,120)"/>
<path d="M0 0 C0.99 0.33 1.98 0.66 3 1 C2.67 1.99 2.34 2.98 2 4 C2.99 3.67 3.98 3.34 5 3 C5.99 3.66 6.98 4.32 8 5 C8 6.32 8 7.64 8 9 C5.625 9.1875 5.625 9.1875 3 9 C0.87491756 5.81237635 0.4979837 3.73487777 0 0 Z " fill="#6D06E2" transform="translate(85,208)"/>
<path d="M0 0 C4.62 0 9.24 0 14 0 C13.34 0.66 12.68 1.32 12 2 C12.33 2.66 12.66 3.32 13 4 C10.36 4 7.72 4 5 4 C4.67 3.34 4.34 2.68 4 2 C2.68 1.34 1.36 0.68 0 0 Z " fill="#6D08DA" transform="translate(125,198)"/>
<path d="M0 0 C1.98 0 3.96 0 6 0 C6 1.98 6 3.96 6 6 C4.68 6.33 3.36 6.66 2 7 C0 4 0 4 0 0 Z " fill="#9E46F4" transform="translate(104,168)"/>
<path d="M0 0 C3.98381075 2.16264012 6.88983545 4.71211176 10 8 C9.67 8.66 9.34 9.32 9 10 C7.68 10 6.36 10 5 10 C4.7525 9.195625 4.505 8.39125 4.25 7.5625 C3.27761141 4.828919 3.27761141 4.828919 0.875 4.1875 C0.25625 4.125625 -0.3625 4.06375 -1 4 C-0.67 2.68 -0.34 1.36 0 0 Z " fill="#8026E1" transform="translate(198,154)"/>
<path d="M0 0 C2.31 0 4.62 0 7 0 C7 1.65 7 3.3 7 5 C4.69 5 2.38 5 0 5 C0 3.35 0 1.7 0 0 Z " fill="#761CE0" transform="translate(66,218)"/>
<path d="M0 0 C1.98 0 3.96 0 6 0 C6 0.99 6 1.98 6 3 C4.35 3 2.7 3 1 3 C1 3.66 1 4.32 1 5 C1.66 5.33 2.32 5.66 3 6 C2.67 6.66 2.34 7.32 2 8 C0.02 8 -1.96 8 -4 8 C-3.01 7.67 -2.02 7.34 -1 7 C-1 6.34 -1 5.68 -1 5 C-1.66 4.67 -2.32 4.34 -3 4 C-2.34 3.67 -1.68 3.34 -1 3 C-0.67 2.01 -0.34 1.02 0 0 Z " fill="#B97AF1" transform="translate(177,216)"/>
<path d="M0 0 C2.64 0 5.28 0 8 0 C8 0.66 8 1.32 8 2 C7.01 2.33 6.02 2.66 5 3 C4.67 4.65 4.34 6.3 4 8 C3.67 6.68 3.34 5.36 3 4 C-0.63 4 -4.26 4 -8 4 C-8 3.67 -8 3.34 -8 3 C-5.36 2.67 -2.72 2.34 0 2 C0 1.34 0 0.68 0 0 Z " fill="#DEC9F9" transform="translate(208,215)"/>
<path d="M0 0 C-0.99 1.485 -0.99 1.485 -2 3 C-2.24055468 5.05709596 -2.24055468 5.05709596 -2.125 7.1875 C-2.08375 8.445625 -2.0425 9.70375 -2 11 C-3.32 10.67 -4.64 10.34 -6 10 C-6 6.7 -6 3.4 -6 0 C-3 -1 -3 -1 0 0 Z " fill="#F0E0F9" transform="translate(245,205)"/>
<path d="M0 0 C1.59412284 3.18824568 1.10174735 6.62896662 1.0625 10.125 C1.05798828 10.87910156 1.05347656 11.63320312 1.04882812 12.41015625 C1.03703499 14.27347127 1.01909942 16.13674555 1 18 C0.01 17.34 -0.98 16.68 -2 16 C-2.36328125 13.06640625 -2.36328125 13.06640625 -2.3125 9.5625 C-2.30863281 8.40878906 -2.30476562 7.25507813 -2.30078125 6.06640625 C-2 3 -2 3 0 0 Z " fill="#8B41DD" transform="translate(150,205)"/>
<path d="M0 0 C3.34252724 -0.07427838 5.8035914 -0.06546953 9 1 C9 2.65 9 4.3 9 6 C8.34 5.67 7.68 5.34 7 5 C6.67 5.66 6.34 6.32 6 7 C2.9375 7.625 2.9375 7.625 0 8 C0 7.34 0 6.68 0 6 C1.32 6 2.64 6 4 6 C4 4.35 4 2.7 4 1 C2.68 0.67 1.36 0.34 0 0 Z " fill="#F8ECFA" transform="translate(223,203)"/>
<path d="M0 0 C1.05367562 2.71771213 1.04119417 3.87551411 0.109375 6.69140625 C-0.33921875 7.63886719 -0.7878125 8.58632812 -1.25 9.5625 C-1.68828125 10.51253906 -2.1265625 11.46257812 -2.578125 12.44140625 C-3.86183826 14.75138478 -5.02618477 16.27581434 -7 18 C-7 15 -7 15 -5.75 12.9375 C-3.30436148 8.83232105 -1.70381814 4.45414386 0 0 Z " fill="#A566E7" transform="translate(98,150)"/>
<path d="M0 0 C0.66 0.33 1.32 0.66 2 1 C1.67 2.32 1.34 3.64 1 5 C-0.41433206 5.2236337 -1.83167618 5.42826476 -3.25 5.625 C-4.03890625 5.74101562 -4.8278125 5.85703125 -5.640625 5.9765625 C-8.32152459 6.00319395 -9.72694089 5.36592084 -12 4 C-9.36 4 -6.72 4 -4 4 C-4 3.01 -4 2.02 -4 1 C-2.68 1.33 -1.36 1.66 0 2 C0 1.34 0 0.68 0 0 Z " fill="#6A0BD7" transform="translate(260,215)"/>
<path d="M0 0 C1.17571451 3.67410785 1.07366746 7.16929183 1 11 C-0.98 11 -2.96 11 -5 11 C-4.731875 10.484375 -4.46375 9.96875 -4.1875 9.4375 C-2.67650593 6.33598585 -1.34427274 3.17737194 0 0 Z " fill="#ECEEEA" transform="translate(133,131)"/>
<path d="M0 0 C0.66 1.32 1.32 2.64 2 4 C1.01 5.485 1.01 5.485 0 7 C-0.33 6.34 -0.66 5.68 -1 5 C-1.66 6.32 -2.32 7.64 -3 9 C-3.66 9 -4.32 9 -5 9 C-5 9.99 -5 10.98 -5 12 C-5.66 11.67 -6.32 11.34 -7 11 C-6.21572648 9.35063087 -5.42234741 7.70558873 -4.625 6.0625 C-4.18414062 5.14597656 -3.74328125 4.22945312 -3.2890625 3.28515625 C-2 1 -2 1 0 0 Z " fill="#E6D5EF" transform="translate(123,151)"/>
<path d="M0 0 C0.33 0.99 0.66 1.98 1 3 C-0.11328125 4.48828125 -0.11328125 4.48828125 -2 6 C-4.91796875 6.29296875 -4.91796875 6.29296875 -8.1875 6.1875 C-9.27417969 6.16042969 -10.36085937 6.13335937 -11.48046875 6.10546875 C-12.31191406 6.07066406 -13.14335937 6.03585938 -14 6 C-14 5.67 -14 5.34 -14 5 C-11.03 5 -8.06 5 -5 5 C-5 4.01 -5 3.02 -5 2 C-4.01 1.67 -3.02 1.34 -2 1 C-1.34 1.33 -0.68 1.66 0 2 C0 1.34 0 0.68 0 0 Z " fill="#873BDD" transform="translate(261,218)"/>
<path d="M0 0 C0.33 0 0.66 0 1 0 C1.32580539 5.53869161 1.49119957 9.39161656 -2 14 C-2.33 14.66 -2.66 15.32 -3 16 C-4 15 -4 15 -4.09765625 13.15234375 C-4.06510417 11.1015625 -4.03255208 9.05078125 -4 7 C-3.67 7.66 -3.34 8.32 -3 9 C-2.34 8.67 -1.68 8.34 -1 8 C-0.53476937 6.10466658 -0.53476937 6.10466658 -0.375 3.9375 C-0.25125 2.638125 -0.1275 1.33875 0 0 Z " fill="#8233DD" transform="translate(144,202)"/>
<path d="M0 0 C1.65 0 3.3 0 5 0 C5.33 1.65 5.66 3.3 6 5 C4.02 5.33 2.04 5.66 0 6 C0 4.02 0 2.04 0 0 Z " fill="#EEF4E5" transform="translate(131,204)"/>
<path d="M0 0 C2.64 0 5.28 0 8 0 C8.33 1.65 8.66 3.3 9 5 C5.625 5.125 5.625 5.125 2 5 C1.34 4.34 0.68 3.68 0 3 C0 2.01 0 1.02 0 0 Z " fill="#7D18E6" transform="translate(176,147)"/>
<path d="M0 0 C1.32 0 2.64 0 4 0 C4 2.64 4 5.28 4 8 C2.68 8.33 1.36 8.66 0 9 C0 6.03 0 3.06 0 0 Z " fill="#9C3FF3" transform="translate(120,136)"/>
<path d="M0 0 C4.75 1.875 4.75 1.875 7 3 C6.67 5.64 6.34 8.28 6 11 C3.13546142 7.58983503 1.65296434 4.09305456 0 0 Z " fill="#E9D9F0" transform="translate(168,79)"/>
<path d="M0 0 C0.33 0 0.66 0 1 0 C1.04241723 2.33294775 1.04092937 4.66702567 1 7 C0 8 0 8 -3.5625 8.0625 C-4.696875 8.041875 -5.83125 8.02125 -7 8 C-7 7.34 -7 6.68 -7 6 C-7.66 5.67 -8.32 5.34 -9 5 C-6.36 5 -3.72 5 -1 5 C-0.67 3.35 -0.34 1.7 0 0 Z " fill="#770AEF" transform="translate(162,208)"/>
<path d="M0 0 C0 0.99 0 1.98 0 3 C-0.66 3 -1.32 3 -2 3 C-2 4.32 -2 5.64 -2 7 C-2.99 7.33 -3.98 7.66 -5 8 C-6.20882096 10.00016466 -6.20882096 10.00016466 -7 12 C-7 10.02 -7 8.04 -7 6 C-6.34 6 -5.68 6 -5 6 C-4.87625 5.195625 -4.7525 4.39125 -4.625 3.5625 C-4.41875 2.716875 -4.2125 1.87125 -4 1 C-2 0 -2 0 0 0 Z " fill="#9A38F7" transform="translate(134,145)"/>
<path d="M0 0 C0.33 0 0.66 0 1 0 C1 3.63 1 7.26 1 11 C2.32 11.33 3.64 11.66 5 12 C2.69 12.66 0.38 13.32 -2 14 C-2.33 12.68 -2.66 11.36 -3 10 C-2.34 10 -1.68 10 -1 10 C-0.67 6.7 -0.34 3.4 0 0 Z " fill="#770CED" transform="translate(199,208)"/>
<path d="M0 0 C1.65 0.33 3.3 0.66 5 1 C4.01 2.98 3.02 4.96 2 7 C0.68 6.34 -0.64 5.68 -2 5 C-1.34 3.35 -0.68 1.7 0 0 Z " fill="#7816DF" transform="translate(98,198)"/>
<path d="M0 0 C3.96 0 7.92 0 12 0 C11.67 1.32 11.34 2.64 11 4 C9.54207116 4.05399736 8.08357288 4.09279177 6.625 4.125 C5.81289062 4.14820313 5.00078125 4.17140625 4.1640625 4.1953125 C2 4 2 4 0 2 C0 1.34 0 0.68 0 0 Z " fill="#ECEEE8" transform="translate(72,192)"/>
<path d="M0 0 C0.52078125 0.15339844 1.0415625 0.30679688 1.578125 0.46484375 C4.63278515 1.13982511 7.63015971 1.34411118 10.75 1.5625 C11.92046875 1.64628906 13.0909375 1.73007813 14.296875 1.81640625 C15.18890625 1.87699219 16.0809375 1.93757812 17 2 C17.33 1.34 17.66 0.68 18 0 C18 0.66 18 1.32 18 2 C18.66 2.33 19.32 2.66 20 3 C13.73 3 7.46 3 1 3 C0.67 2.01 0.34 1.02 0 0 Z " fill="#6E0FCF" transform="translate(196,176)"/>
<path d="M0 0 C5.20540698 0.96396425 9.59913433 1.87680501 14 5 C13.67 5.99 13.34 6.98 13 8 C8.71 5.69 4.42 3.38 0 1 C0 0.67 0 0.34 0 0 Z " fill="#F0D8FB" transform="translate(184,145)"/>
<path d="M0 0 C0.33 0 0.66 0 1 0 C1 2.97 1 5.94 1 9 C0.34 9 -0.32 9 -1 9 C-1.33 9.99 -1.66 10.98 -2 12 C-3.1171875 10.265625 -3.1171875 10.265625 -4 8 C-3.3203125 5.859375 -3.3203125 5.859375 -2.125 3.75 C-1.73570313 3.04359375 -1.34640625 2.3371875 -0.9453125 1.609375 C-0.63335937 1.07828125 -0.32140625 0.5471875 0 0 Z " fill="#AE62ED" transform="translate(113,118)"/>
<path d="M0 0 C0.99 0 1.98 0 3 0 C3 1.32 3 2.64 3 4 C-0.3 4 -3.6 4 -7 4 C-7 3.34 -7 2.68 -7 2 C-4.69 2 -2.38 2 0 2 C0 1.34 0 0.68 0 0 Z " fill="#7008E7" transform="translate(163,219)"/>
<path d="M0 0 C1.60332791 -0.08121924 3.20784026 -0.13929134 4.8125 -0.1875 C6.15248047 -0.23970703 6.15248047 -0.23970703 7.51953125 -0.29296875 C10.41647515 0.04918998 11.22555028 0.75393573 13 3 C12.67 3.66 12.34 4.32 12 5 C10.68 5 9.36 5 8 5 C8.33 3.68 8.66 2.36 9 1 C6.03 1 3.06 1 0 1 C0 0.67 0 0.34 0 0 Z " fill="#8937E0" transform="translate(249,211)"/>
<path d="M0 0 C0.33 1.32 0.66 2.64 1 4 C1.66 4.33 2.32 4.66 3 5 C1.625 6.5 1.625 6.5 0 8 C-0.66 8 -1.32 8 -2 8 C-2 8.66 -2 9.32 -2 10 C-2.66 9.67 -3.32 9.34 -4 9 C-2.68 6.03 -1.36 3.06 0 0 Z " fill="#EEDDFB" transform="translate(115,164)"/>
<path d="M0 0 C0.33 0 0.66 0 1 0 C1.33 5.28 1.66 10.56 2 16 C-0.92990998 11.60513504 -1.30981005 7.1244118 -0.5625 2 C-0.2840625 1.01 -0.2840625 1.01 0 0 Z " fill="#FBF3FC" transform="translate(189,112)"/>
<path d="M0 0 C0.33 0.66 0.66 1.32 1 2 C2.32 1.67 3.64 1.34 5 1 C5 1.66 5 2.32 5 3 C1.91190305 4.76462683 0.76687864 5 -3 5 C-3.33 5.99 -3.66 6.98 -4 8 C-4.33 7.34 -4.66 6.68 -5 6 C-3.35 4.02 -1.7 2.04 0 0 Z " fill="#9B4BEF" transform="translate(137,74)"/>
<path d="M0 0 C0.66 0.66 1.32 1.32 2 2 C1.34 2 0.68 2 0 2 C-0.07427838 5.34252724 -0.06546953 7.8035914 1 11 C0.01 10.67 -0.98 10.34 -2 10 C-3.39431504 7.21136993 -3.25660094 5.07921132 -3 2 C-2.01 1.34 -1.02 0.68 0 0 Z " fill="#7209E9" transform="translate(175,212)"/>
<path d="M0 0 C2.1519437 3.22791555 2.20086443 4.28400809 2 8 C0.68 8 -0.64 8 -2 8 C-1.125 1.125 -1.125 1.125 0 0 Z " fill="#730AE8" transform="translate(56,206)"/>
<path d="M0 0 C2.5654594 2.5654594 2.54046087 4.47686668 3 8 C1.35 8 -0.3 8 -2 8 C-1.34 5.36 -0.68 2.72 0 0 Z " fill="#EED8F5" transform="translate(51,206)"/>
<path d="M0 0 C1.98 0 3.96 0 6 0 C6 1.32 6 2.64 6 4 C4.02 4 2.04 4 0 4 C0 2.68 0 1.36 0 0 Z " fill="#E2CCF1" transform="translate(155,208)"/>
<path d="M0 0 C2.97 0.33 5.94 0.66 9 1 C9 1.33 9 1.66 9 2 C6.69 2.33 4.38 2.66 2 3 C1.67 4.65 1.34 6.3 1 8 C0.01 7.67 -0.98 7.34 -2 7 C-1.34 4.69 -0.68 2.38 0 0 Z " fill="#F7F5E6" transform="translate(170,201)"/>
<path d="M0 0 C0.99 0.33 1.98 0.66 3 1 C2.25 6.75 2.25 6.75 0 9 C-1.125 6.75 -1.125 6.75 -2 4 C-1.125 1.6875 -1.125 1.6875 0 0 Z " fill="#E5D8F3" transform="translate(114,109)"/>
<path d="M0 0 C0.33 0.66 0.66 1.32 1 2 C1.99 2.33 2.98 2.66 4 3 C4 3.99 4 4.98 4 6 C2.35 6 0.7 6 -1 6 C-1.625 4.125 -1.625 4.125 -2 2 C-1.34 1.34 -0.68 0.68 0 0 Z " fill="#7209E6" transform="translate(59,216)"/>
<path d="M0 0 C1.39195915 4.17587745 -0.17676781 6.13474776 -2 10 C-3.32 9.67 -4.64 9.34 -6 9 C-5.67 7.68 -5.34 6.36 -5 5 C-3.68 5 -2.36 5 -1 5 C-0.67 3.35 -0.34 1.7 0 0 Z " fill="#7F0CF5" transform="translate(46,212)"/>
<path d="M0 0 C1 3 1 3 0.22265625 5.04296875 C-0.16019531 5.75066406 -0.54304688 6.45835937 -0.9375 7.1875 C-1.31777344 7.90292969 -1.69804688 8.61835938 -2.08984375 9.35546875 C-2.54037109 10.16951172 -2.54037109 10.16951172 -3 11 C-3.66 11 -4.32 11 -5 11 C-4.46884894 6.48521602 -2.63379708 3.65333143 0 0 Z " fill="#A146FB" transform="translate(118,152)"/>
<path d="M0 0 C0.66 0.33 1.32 0.66 2 1 C2 3.97 2 6.94 2 10 C1.34 10 0.68 10 0 10 C0 8.68 0 7.36 0 6 C-0.66 6 -1.32 6 -2 6 C-1.49396008 3.83125748 -1.00016187 2.00032373 0 0 Z " fill="#9A4AE8" transform="translate(109,128)"/>
<path d="M0 0 C1.65 0 3.3 0 5 0 C5 1.65 5 3.3 5 5 C2.03 4.505 2.03 4.505 -1 4 C-0.67 2.68 -0.34 1.36 0 0 Z " fill="#EBEDE7" transform="translate(211,210)"/>
<path d="M0 0 C0.66 0 1.32 0 2 0 C2 0.66 2 1.32 2 2 C3.32 1.67 4.64 1.34 6 1 C6 1.99 6 2.98 6 4 C4.68 4 3.36 4 2 4 C1.34 5.32 0.68 6.64 0 8 C-0.79953138 4.71303767 -1.09658936 3.28976808 0 0 Z " fill="#740AEF" transform="translate(220,204)"/>
<path d="M0 0 C0.66 0.33 1.32 0.66 2 1 C2 1.66 2 2.32 2 3 C2.66 3.33 3.32 3.66 4 4 C3.34 4 2.68 4 2 4 C1.67 5.65 1.34 7.3 1 9 C0.67 9 0.34 9 0 9 C0 7.35 0 5.7 0 4 C-1.32 3.67 -2.64 3.34 -4 3 C-2.68 3 -1.36 3 0 3 C0 2.01 0 1.02 0 0 Z " fill="#F1E3F5" transform="translate(260,200)"/>
<path d="M0 0 C0 0.66 0 1.32 0 2 C-4.49656104 4.24828052 -8.07872966 4.16682272 -13 4 C-13 3.67 -13 3.34 -13 3 C-11.39743892 2.49487756 -9.79288208 1.99608373 -8.1875 1.5 C-7.29417969 1.2215625 -6.40085938 0.943125 -5.48046875 0.65625 C-3 0 -3 0 0 0 Z " fill="#EDD2FB" transform="translate(181,136)"/>
<path d="M0 0 C0.99 0.66 1.98 1.32 3 2 C-0.69172595 5.53790403 -4.09390595 5.59115883 -9 6 C-6 4 -6 4 -3.375 3 C-0.84860062 2.23952738 -0.84860062 2.23952738 0 0 Z " fill="#8330DB" transform="translate(177,133)"/>
<path d="M0 0 C0.66 0 1.32 0 2 0 C2 0.99 2 1.98 2 3 C2.66 3 3.32 3 4 3 C3.34 4.65 2.68 6.3 2 8 C0.02 8 -1.96 8 -4 8 C-4 7.67 -4 7.34 -4 7 C-2.35 7 -0.7 7 1 7 C0.67 4.69 0.34 2.38 0 0 Z " fill="#7417CD" transform="translate(92,210)"/>
<path d="M0 0 C0.33 1.32 0.66 2.64 1 4 C-1.66666667 4 -4.33333333 4 -7 4 C-7 3.01 -7 2.02 -7 1 C-3.535 0.505 -3.535 0.505 0 0 Z " fill="#7A13E9" transform="translate(55,198)"/>
<path d="M0 0 C0.33 0 0.66 0 1 0 C1.36923077 5.41538462 1.36923077 5.41538462 -0.5 8.375 C-0.995 8.91125 -1.49 9.4475 -2 10 C-2.66 9.67 -3.32 9.34 -4 9 C-4 8.01 -4 7.02 -4 6 C-3.34 5.67 -2.68 5.34 -2 5 C-1.27840576 3.35636866 -0.60648579 1.68949614 0 0 Z " fill="#F2E8F6" transform="translate(122,154)"/>
<path d="M0 0 C1.32 0 2.64 0 4 0 C4 1.32 4 2.64 4 4 C2.02 4 0.04 4 -2 4 C-1.34 2.68 -0.68 1.36 0 0 Z " fill="#6F07DD" transform="translate(248,212)"/>
<path d="M0 0 C0.66 0 1.32 0 2 0 C2.95024979 3.69541586 2.95024979 6.30458414 2 10 C1.34 9.67 0.68 9.34 0 9 C0 6.03 0 3.06 0 0 Z " fill="#780FE1" transform="translate(216,212)"/>
<path d="M0 0 C1.32 0.66 2.64 1.32 4 2 C2.02 2.99 2.02 2.99 0 4 C0 6.64 0 9.28 0 12 C-0.33 12 -0.66 12 -1 12 C-1.02687279 10.18757948 -1.04633715 8.37504767 -1.0625 6.5625 C-1.07410156 5.55316406 -1.08570313 4.54382813 -1.09765625 3.50390625 C-1 1 -1 1 0 0 Z " fill="#821BEE" transform="translate(196,204)"/>
<path d="M0 0 C0.66 0 1.32 0 2 0 C2 0.66 2 1.32 2 2 C2.66 2 3.32 2 4 2 C4 1.34 4 0.68 4 0 C4.66 0 5.32 0 6 0 C6 1.32 6 2.64 6 4 C4.02 4 2.04 4 0 4 C0 2.68 0 1.36 0 0 Z " fill="#F2F8E2" transform="translate(233,192)"/>
<path d="M0 0 C3.68754757 0.49831724 5.60490662 1.10067643 8 4 C6.25 4.75 6.25 4.75 4 5 C1.75 3.125 1.75 3.125 0 1 C0 0.67 0 0.34 0 0 Z " fill="#761ED9" transform="translate(185,147)"/>
<path d="M0 0 C1.32 0.33 2.64 0.66 4 1 C3.67 2.32 3.34 3.64 3 5 C1.35 5 -0.3 5 -2 5 C-1.34 3.35 -0.68 1.7 0 0 Z " fill="#F5F6EB" transform="translate(149,98)"/>
<path d="M0 0 C2.64 0 5.28 0 8 0 C8.33 0.99 8.66 1.98 9 3 C6.36 3 3.72 3 1 3 C0.67 2.01 0.34 1.02 0 0 Z " fill="#D3B3F1" transform="translate(175,208)"/>
<path d="M0 0 C1.5 1.375 1.5 1.375 3 3 C3 3.66 3 4.32 3 5 C3.66 5 4.32 5 5 5 C4.67 5.99 4.34 6.98 4 8 C2.68 7.67 1.36 7.34 0 7 C0 4.69 0 2.38 0 0 Z " fill="#822ADF" transform="translate(87,205)"/>
<path d="M0 0 C2.4375 0.75 2.4375 0.75 5 2 C5.8125 4.125 5.8125 4.125 6 6 C5.01 6 4.02 6 3 6 C3 5.34 3 4.68 3 4 C2.01 3.67 1.02 3.34 0 3 C0 2.01 0 1.02 0 0 Z " fill="#8932E1" transform="translate(160,73)"/>
<path d="M0 0 C0.66 0.66 1.32 1.32 2 2 C1.01 4.64 0.02 7.28 -1 10 C-2.06546953 6.8035914 -2.07427838 4.34252724 -2 1 C-1.34 0.67 -0.68 0.34 0 0 Z " fill="#802AD7" transform="translate(50,204)"/>
<path d="M0 0 C1.32 0 2.64 0 4 0 C4 1.32 4 2.64 4 4 C3.34 4 2.68 4 2 4 C1.67 4.66 1.34 5.32 1 6 C0.67 4.02 0.34 2.04 0 0 Z " fill="#6F0EE2" transform="translate(218,200)"/>
<path d="M0 0 C1.65 0 3.3 0 5 0 C4.67 1.32 4.34 2.64 4 4 C2.68 4 1.36 4 0 4 C0 2.68 0 1.36 0 0 Z " fill="#6D08E1" transform="translate(233,198)"/>
<path d="M0 0 C4.55384615 -0.36923077 4.55384615 -0.36923077 6.8125 1.5 C7.204375 1.995 7.59625 2.49 8 3 C5.36 3 2.72 3 0 3 C0 2.01 0 1.02 0 0 Z " fill="#6B03E4" transform="translate(228,226)"/>
<path d="M0 0 C0.33 1.32 0.66 2.64 1 4 C0.34 4 -0.32 4 -1 4 C-1.33 3.34 -1.66 2.68 -2 2 C-5.02934491 1.34227572 -5.02934491 1.34227572 -8 1 C-4.93251126 -0.86240388 -3.40254489 -1.2151946 0 0 Z " fill="#6D0AE9" transform="translate(136,214)"/>
<path d="M0 0 C2.79872437 2.52788007 4.45773019 4.20411134 5 8 C3.0625 7.375 3.0625 7.375 1 6 C0.25 2.875 0.25 2.875 0 0 Z " fill="#E8D4FB" transform="translate(188,173)"/>
<path d="M0 0 C2.475 0.99 2.475 0.99 5 2 C4.67 3.65 4.34 5.3 4 7 C2.10786631 4.61426621 0.97608217 2.92824652 0 0 Z " fill="#EBDDF0" transform="translate(210,166)"/>
<path d="M0 0 C1.32 0 2.64 0 4 0 C3.67 1.65 3.34 3.3 3 5 C2.01 5 1.02 5 0 5 C-0.33 4.01 -0.66 3.02 -1 2 C-0.67 1.34 -0.34 0.68 0 0 Z " fill="#8828EF" transform="translate(178,106)"/>
</svg>
